<svg width="58" height="58" viewBox="-3 -3 64 64" fill="none" xmlns="http://www.w3.org/2000/svg">
<path d="M29 58C45.0163 58 58 45.0163 58 29C58 12.9837 45.0163 0 29 0C12.9837 0 0 12.9837 0 29C0 45.0163 12.9837 58 29 58Z" fill="#5F67FA"/>
<path fill-rule="evenodd" clip-rule="evenodd" d="M15 19V37.2041C19.4824 38.4543 24.2065 39.125 29.0875 39.125C33.9686 39.125 38.6927 38.4543 43.175 37.2041V19H15ZM41.1625 35.652C37.2263 36.6217 33.1717 37.1125 29.0875 37.1125C25.0033 37.1125 20.9488 36.6217 17.0125 35.652V23.0719L29.0875 31.5265L41.1625 23.0719V35.652ZM40.5948 21.0125H17.5803L29.0875 29.0699L40.5948 21.0125Z" fill="white"/>
</svg>
