<svg width="58" height="58" viewBox="-3 -3 64 64" fill="none" xmlns="http://www.w3.org/2000/svg">
<path d="M29 58C45.0163 58 58 45.0163 58 29C58 12.9837 45.0163 0 29 0C12.9837 0 0 12.9837 0 29C0 45.0163 12.9837 58 29 58Z" fill="#5F67FA"/>
<path d="M36.0411 21.5C35.7477 21.8859 35.4875 22.3068 35.2614 22.7429C34.3312 24.5375 33.8009 26.8897 33.8009 29.2591C33.8009 31.6262 34.3224 33.9713 35.2322 35.7594C35.4531 36.1936 35.708 36.6139 35.9959 37L16.2744 37C15.2965 37 14.2494 36.3284 13.3924 34.8842C12.5479 33.4611 12 31.4446 12 29.2046C12 27.063 12.4971 25.0614 13.2888 23.6289C14.0963 22.168 15.0759 21.5036 15.991 21.5L36.0411 21.5Z" stroke="white" stroke-width="2" stroke-linejoin="round"/>
<path d="M41.3947 36.079C40.6222 36.079 39.742 35.5399 39.0003 34.2789C38.2721 33.041 37.7895 31.2653 37.7895 29.25C37.7895 27.2348 38.2721 25.4591 39.0003 24.2211C39.742 22.9601 40.6222 22.4211 41.3947 22.4211C42.1673 22.4211 43.0474 22.9601 43.7892 24.2211C44.5174 25.4591 45 27.2348 45 29.25C45 31.2653 44.5174 33.041 43.7892 34.2789C43.0474 35.5399 42.1673 36.079 41.3947 36.079Z" stroke="white" stroke-width="2" stroke-linejoin="round"/>
<circle cx="27.1184" cy="29.25" r="2.30263" fill="white"/>
<circle cx="20.671" cy="29.25" r="2.30263" fill="white"/>
</svg>
