<svg width="58" height="58" viewBox="-3 -3 64 64" fill="none" xmlns="http://www.w3.org/2000/svg">
<path d="M29 58C45.0163 58 58 45.0163 58 29C58 12.9837 45.0163 0 29 0C12.9837 0 0 12.9837 0 29C0 45.0163 12.9837 58 29 58Z" fill="#5F67FA"/>
<path d="M40.0519 19.6045L35.3884 14.9572C34.845 14.4156 33.8466 14 33.0756 14H32.052H28.804H19.8436C18.2764 14 17 15.272 17 16.8338V41.1662C17 42.728 18.2764 44 19.8436 44H38.1562C39.7233 44 40.9997 42.728 40.9997 41.1662V29V22.9169V21.9093C41.0124 21.1411 40.5953 20.1461 40.0519 19.6045ZM38.232 20.0831C38.2067 20.0831 38.1814 20.0831 38.1562 20.0831H36.1214C35.4516 20.0831 34.8955 19.5416 34.8955 18.8615V16.8338C34.8955 16.8086 34.8955 16.7834 34.8955 16.7582L38.232 20.0831ZM39.382 41.1788C39.382 41.8463 38.8386 42.4005 38.1562 42.4005H19.8436C19.1738 42.4005 18.6177 41.8589 18.6177 41.1788V16.8338C18.6177 16.1662 19.1611 15.6121 19.8436 15.6121H28.7913H32.052C32.7218 15.6121 33.2779 16.1537 33.2779 16.8338V18.8615C33.2779 20.4232 34.5543 21.6952 36.1214 21.6952H38.1562C38.826 21.6952 39.382 22.2368 39.382 22.9169V29V41.1788Z" fill="white"/>
<path d="M25.81 26.8962L23.1723 31.0073L25.81 35.1184H24.6182L22 31.0073L24.6182 26.8962H25.81Z" fill="white"/>
<path d="M33.3818 26.8962H32.1899L34.8277 31.0073L32.1899 35.1184H33.3818L36 31.0073L33.3818 26.8962Z" fill="white"/>
<path d="M27.031 37H28.126L31.2434 25H30.1485L27.031 37Z" fill="white"/>
</svg>
