<svg width="58" height="58" viewBox="-3 -3 64 64" fill="none" xmlns="http://www.w3.org/2000/svg">
<path d="M29 58C45.0163 58 58 45.0163 58 29C58 12.9837 45.0163 0 29 0C12.9837 0 0 12.9837 0 29C0 45.0163 12.9837 58 29 58Z" fill="#5F67FA"/>
<path d="M31.8224 19.5655C31.3856 19.5655 31.0384 19.2056 31.0384 18.7783V16.6418C31.0384 16.2032 30.68 15.8546 30.2544 15.8546H18.2592C17.8224 15.8546 17.4752 16.2145 17.4752 16.6418V18.7783C17.4752 19.2169 17.4752 19.9253 17.4752 20.3639V35.0161C17.4752 35.4546 17.8336 35.8032 18.2592 35.8032H39.9536C40.3904 35.8032 40.7376 35.4434 40.7376 35.0161V20.3526C40.7376 19.9141 40.3792 19.5655 39.9536 19.5655H31.8224Z" stroke="white" stroke-width="1.5" stroke-miterlimit="10"/>
<path d="M29 35.8032V39.2892" stroke="white" stroke-width="1.5" stroke-miterlimit="10"/>
<path d="M43 40.5486H15" stroke="white" stroke-width="1.5" stroke-miterlimit="10"/>
<path d="M29 43C30.2185 43 31.2064 42.0082 31.2064 40.7847C31.2064 39.5613 30.2185 38.5695 29 38.5695C27.7814 38.5695 26.7936 39.5613 26.7936 40.7847C26.7936 42.0082 27.7814 43 29 43Z" fill="white"/>
<path d="M22.7537 27.8111C22.1962 27.6502 21.79 27.453 21.5349 27.2196C21.2821 26.984 21.1557 26.6939 21.1557 26.3495C21.1557 25.9597 21.3103 25.6379 21.6196 25.3841C21.931 25.128 22.335 25 22.8316 25C23.1701 25 23.4714 25.0657 23.7355 25.1971C24.0018 25.3286 24.2072 25.5099 24.3517 25.741C24.4984 25.9721 24.5717 26.2248 24.5717 26.499H23.9183C23.9183 26.1999 23.8235 25.9654 23.6339 25.7954C23.4444 25.6232 23.1769 25.5371 22.8316 25.5371C22.5111 25.5371 22.2605 25.6084 22.08 25.7512C21.9017 25.8917 21.8125 26.0877 21.8125 26.3393C21.8125 26.5409 21.8972 26.712 22.0664 26.8525C22.238 26.9908 22.528 27.1177 22.9365 27.2332C23.3473 27.3488 23.6678 27.4768 23.898 27.6173C24.1305 27.7556 24.302 27.9176 24.4126 28.1034C24.5255 28.2892 24.5819 28.5079 24.5819 28.7594C24.5819 29.1605 24.4262 29.4823 24.1147 29.7248C23.8032 29.965 23.3868 30.0851 22.8654 30.0851C22.5269 30.0851 22.2109 30.0205 21.9175 29.8913C21.6241 29.7599 21.3972 29.5809 21.237 29.3543C21.079 29.1277 21 28.8705 21 28.5827H21.6534C21.6534 28.8818 21.7629 29.1186 21.9818 29.2931C22.203 29.4653 22.4975 29.5514 22.8654 29.5514C23.2085 29.5514 23.4714 29.4812 23.6543 29.3407C23.8371 29.2002 23.9285 29.0087 23.9285 28.7662C23.9285 28.5238 23.8438 28.3368 23.6746 28.2054C23.5053 28.0717 23.1983 27.9402 22.7537 27.8111Z" fill="white"/>
<path d="M28.1367 27.8315H26.0681V30.0171H25.4181V25.068H28.4719V25.605H26.0681V27.2978H28.1367V27.8315Z" fill="white"/>
<path d="M32.7241 25.605H31.1397V30.0171H30.493V25.605H28.912V25.068H32.7241V25.605Z" fill="white"/>
<path d="M34.1054 28.0796V30.0171H33.4554V25.068H35.2734C35.8128 25.068 36.2349 25.2062 36.5396 25.4827C36.8465 25.7591 37 26.1251 37 26.5806C37 27.061 36.8499 27.4315 36.5497 27.6921C36.2518 27.9504 35.8241 28.0796 35.2666 28.0796H34.1054ZM34.1054 27.5459H35.2734C35.621 27.5459 35.8873 27.4644 36.0724 27.3012C36.2574 27.1358 36.35 26.8978 36.35 26.5874C36.35 26.2928 36.2574 26.0571 36.0724 25.8804C35.8873 25.7036 35.6334 25.6118 35.3106 25.605H34.1054V27.5459Z" fill="white"/>
</svg>
