<svg width="54" height="54" viewBox="-3 -3 58 58" fill="none" xmlns="http://www.w3.org/2000/svg">
<path d="M47.2899 2.70798C46.5585 4.45463 45.6307 6.11327 44.5133 7.63651C39.6238 2.7486 32.9871 0 26.0727 0C11.77 0 0 11.7797 0 26.0982C0 33.2405 2.92556 40.0781 8.09948 45.0066L9.06112 45.8597C13.761 49.8201 19.7137 52 25.856 52C39.4545 52 50.8859 41.3441 51.8543 27.7636C52.5654 21.1155 50.615 12.7072 47.2899 2.70798ZM11.8038 45.1556C11.384 45.6769 10.7406 45.9815 10.0702 45.9815C8.84442 45.9815 7.84214 44.9728 7.84214 43.7474C7.84214 42.5221 8.85119 41.5133 10.0702 41.5133C10.5781 41.5133 11.0792 41.6894 11.472 42.0143C12.4269 42.7861 12.5759 44.201 11.8038 45.1556ZM47.1815 37.3431C40.748 45.9206 27.0073 43.0298 18.1967 43.4428C18.1967 43.4428 16.6324 43.5376 15.0612 43.7948C15.0612 43.7948 15.6504 43.5443 16.4157 43.2532C22.5986 41.1004 25.5242 40.6806 29.2827 38.7512C36.3596 35.1496 43.3552 27.2694 44.8113 19.071C42.1159 26.9579 33.9487 33.7347 26.5062 36.49C21.4067 38.3721 12.1966 40.2 12.1966 40.2L11.8242 40.0037C5.55316 36.9504 5.36354 23.3631 16.761 18.9762C21.7521 17.0535 26.5265 18.1096 31.9171 16.8233C37.6734 15.4558 44.3304 11.1366 47.0393 5.50397C50.0732 14.5148 53.7234 28.6234 47.1815 37.3431Z" fill="#87B840"/>
</svg>
