<svg width="58" height="58" viewBox="-3 -3 64 64" fill="none" xmlns="http://www.w3.org/2000/svg">
<path d="M29 58C45.0163 58 58 45.0163 58 29C58 12.9837 45.0163 0 29 0C12.9837 0 0 12.9837 0 29C0 45.0163 12.9837 58 29 58Z" fill="#5F67FA"/>
<path fill-rule="evenodd" clip-rule="evenodd" d="M29.6631 40.9983V35.1675H34.3513C33.356 38.2284 31.6182 40.4865 29.6631 40.9983ZM28.0088 23.8239H23.2371C24.1883 20.671 25.9249 18.4496 28.0088 17.9833V23.8239ZM28.0088 40.9983C26.0525 40.4865 24.3159 38.2284 23.3194 35.1675H28.0088V40.9983ZM18.1096 35.1675H21.5558C22.1952 37.4061 23.2101 39.2887 24.462 40.6326C21.7742 39.6545 19.5075 37.735 18.1096 35.1675ZM17.3696 25.4782H21.1348C20.9066 26.73 20.7875 28.0837 20.7875 29.4914C20.7875 30.8893 20.925 32.2331 21.1631 33.5046H17.3696C16.4282 30.8991 16.4282 28.0837 17.3696 25.4782ZM22.8162 25.4782H27.999V33.5046H22.8616C22.5977 32.2417 22.4419 30.8893 22.4419 29.4914C22.4419 28.0751 22.5793 26.7215 22.8162 25.4782ZM23.9784 18.5589C24.0692 18.5233 24.1699 18.4865 24.2607 18.4496C23.0641 19.7653 22.113 21.6209 21.5091 23.8337H18.1096C19.3982 21.4565 21.4453 19.6008 23.9784 18.5589ZM29.6631 17.9833C31.7471 18.4496 33.4836 20.671 34.4336 23.8337H29.6631V17.9833ZM39.2778 35.6476C39.1036 35.6476 39.1549 35.6476 38.645 35.6476C37.4815 37.6015 35.775 39.1451 33.5929 40.1846C34.6631 38.8874 36.1063 35.6476 36.1063 35.6476C36.1063 35.6476 33.519 33.8794 33.2226 33.5046H29.6631V25.4782H33.2226C33.5141 25.1087 36.1063 23.3685 36.1063 23.3685C36.1063 23.3685 34.8091 20.1666 33.7941 18.8964C35.7651 19.8794 37.4232 21.4356 38.5977 23.3685C38.7844 23.3685 39.081 23.3685 39.1549 23.3685H40.5306C38.2307 18.8927 33.5978 16 28.4923 16C26.7201 16 24.9836 16.3473 23.3378 17.0334C20.0106 18.4128 17.415 21.0085 16.0355 24.3356C14.6548 27.6628 14.6548 31.3372 16.0355 34.6644C18.128 39.7281 23.0273 43 28.5107 43C30.2841 43 32.0207 42.6539 33.6665 41.9679C36.7654 40.6854 39.1242 38.4299 40.5306 35.6476H39.2778Z" fill="white"/>
<g clip-path="url(#clip0)">
<path d="M45.0153 31.6726L44.9409 26.4264C44.9272 25.4648 44.1312 24.6912 43.1697 24.7048L39.6698 24.7475C38.7082 24.7611 37.9345 25.5571 37.9482 26.5186L33.5928 26.5805L33.6177 28.3339L37.9589 28.2723L37.9838 30.0257L33.6355 30.0804L33.6604 31.8338L38.0157 31.772C38.0293 32.7336 38.8253 33.5072 39.7869 33.4936L43.2796 33.444C44.2484 33.4373 45.029 32.6342 45.0153 31.6726ZM39.7691 31.7471L39.6875 26.4939L43.1874 26.4513L43.2619 31.6975L39.7691 31.7471Z" fill="white"/>
</g>
<defs>
<clipPath id="clip0">
<rect width="12.25" height="12.25" fill="white" transform="translate(39.5382 20.4638) rotate(44.1865)"/>
</clipPath>
</defs>
</svg>
