<svg width="58" height="58" viewBox="-3 -3 64 64" fill="none" xmlns="http://www.w3.org/2000/svg">
<path d="M29 58C45.0163 58 58 45.0163 58 29C58 12.9837 45.0163 0 29 0C12.9837 0 0 12.9837 0 29C0 45.0163 12.9837 58 29 58Z" fill="#5F67FA"/>
<g clip-path="url(#clip0)">
<path d="M31.8224 19.5655C31.3856 19.5655 31.0384 19.2056 31.0384 18.7783V16.6418C31.0384 16.2032 30.68 15.8546 30.2544 15.8546H18.2592C17.8224 15.8546 17.4752 16.2145 17.4752 16.6418V18.7783C17.4752 19.2169 17.4752 19.9253 17.4752 20.3639V35.0161C17.4752 35.4546 17.8336 35.8032 18.2592 35.8032H39.9536C40.3904 35.8032 40.7376 35.4434 40.7376 35.0161V20.3526C40.7376 19.9141 40.3792 19.5655 39.9536 19.5655H31.8224Z" stroke="white" stroke-width="1.5" stroke-miterlimit="10"/>
<path d="M29 35.8032V39.2892" stroke="white" stroke-width="1.5" stroke-miterlimit="10"/>
<path d="M43 40.5486H15" stroke="white" stroke-width="1.5" stroke-miterlimit="10"/>
<path d="M29 43C30.2185 43 31.2064 42.0082 31.2064 40.7848C31.2064 39.5613 30.2185 38.5695 29 38.5695C27.7814 38.5695 26.7936 39.5613 26.7936 40.7848C26.7936 42.0082 27.7814 43 29 43Z" fill="white"/>
<path d="M25.8167 27.8633H23.6735V30.1278H23V25H26.164V25.5564H23.6735V27.3103H25.8167V27.8633Z" fill="white"/>
<path d="M30.5697 25.5564H28.9281V30.1278H28.2581V25.5564H26.62V25H30.5697V25.5564Z" fill="white"/>
<path d="M32.0009 28.1203V30.1278H31.3274V25H33.211C33.7699 25 34.2072 25.1432 34.5229 25.4297C34.841 25.7161 35 26.0953 35 26.5672C35 27.065 34.8445 27.4488 34.5335 27.7189C34.2248 27.9865 33.7816 28.1203 33.204 28.1203H32.0009ZM32.0009 27.5674H33.211C33.5712 27.5674 33.8471 27.4829 34.0389 27.3138C34.2306 27.1424 34.3265 26.8959 34.3265 26.5743C34.3265 26.269 34.2306 26.0249 34.0389 25.8417C33.8471 25.6586 33.584 25.5635 33.2496 25.5564H32.0009V27.5674Z" fill="white"/>
</g>
<defs>
<clipPath id="clip0">
<rect width="28" height="28" fill="white" transform="translate(15 15)"/>
</clipPath>
</defs>
</svg>
